<svg width="33" height="34" viewBox="0 0 33 34" fill="none" xmlns="http://www.w3.org/2000/svg">
<path d="M5 3.5H28V-2.5H5V3.5ZM30 5.5V28.5H36V5.5H30ZM28 30.5H5V36.5H28V30.5ZM3 28.5V5.5H-3V28.5H3ZM5 30.5C3.89543 30.5 3 29.6046 3 28.5H-3C-3 32.9183 0.58172 36.5 5 36.5V30.5ZM30 28.5C30 29.6046 29.1046 30.5 28 30.5V36.5C32.4183 36.5 36 32.9183 36 28.5H30ZM28 3.5C29.1046 3.5 30 4.39543 30 5.5H36C36 1.08172 32.4183 -2.5 28 -2.5V3.5ZM5 -2.5C0.581723 -2.5 -3 1.08172 -3 5.5H3C3 4.39543 3.89543 3.5 5 3.5V-2.5Z" fill="black"/>
</svg>
